<svg width="698" height="698" viewBox="0 0 698 698" fill="none" xmlns="http://www.w3.org/2000/svg">
<path d="M327.13 102.2C337.307 103.323 337.333 104.154 337.396 105.674C337.604 107.32 337.836 109.415 345.558 112.492C353.463 115.775 361.534 116.538 369.627 117.417C380.005 118.339 390.623 119.382 402.158 124.432C414.027 130.123 414.481 135.317 415.204 140.97C415.815 145.895 416.487 151.099 425.468 157.104C434.801 163.366 444.184 163.677 453.347 164.093C464.913 164.552 476.722 164.426 488.562 173.082C500.373 182.016 500.512 191.707 500.839 201.821C501.249 210.25 501.676 218.907 509.027 228.118C516.707 237.141 523.448 238.012 529.771 238.696C537.51 239.433 544.599 239.824 551.778 252.779C558.433 265.399 559.237 277.002 560.004 288.149C560.764 296.946 561.595 305.588 566.509 314.301C571.205 322.488 574.877 322.881 578.264 323.292C581.822 323.666 584.827 323.985 588.291 334.757C591.297 345.379 592.392 355.222 593.372 365.047C593.999 372.869 594.75 380.733 596.385 388.316C596.347 390.543 596.143 392.601 596.149 394.678C593.332 384.341 592.573 374.545 591.603 364.829C590.859 356.985 590.103 349.02 587.463 341.351C584.736 333.273 582.031 333.043 579.266 332.733C574.932 332.411 570.18 331.878 563.435 320.701C556.526 309.17 555.474 298.332 554.458 287.551C553.886 278.54 553.288 269.308 547.888 260.11C542.284 250.594 536.529 249.977 530.32 249.43C522.018 248.649 513.593 247.628 503.291 234.946C492.617 222.413 491.909 211.842 491.275 201.538C490.892 193.557 490.706 185.543 481.545 178.86C472.809 171.869 463.509 171.718 453.98 171.669C442.672 170.952 431.229 170.216 418.653 161.434C406.324 153.017 405.498 146.225 404.902 140.066C404.379 135.437 403.949 131.189 395.236 126.909C386.741 122.633 378.335 121.844 370.089 121.005C359.912 119.883 349.991 119.116 339.355 114.041C328.831 109.696 328.531 106.922 328.518 104.856C328.301 103.603 328.161 102.752 320.7 101.758C322.834 101.84 324.984 102.131 327.118 102.212L327.13 102.2ZM102.017 303.381C104.603 313.677 105.411 323.444 106.449 333.211C107.089 341.047 108.074 349.034 110.608 356.804C113.439 364.777 115.971 364.93 118.909 365.317C123.022 365.631 127.939 366.116 134.474 377.392C141.582 388.814 142.541 399.655 143.661 410.443C144.233 419.455 144.781 428.736 150.231 437.885C155.718 447.496 161.372 448.102 167.729 448.612C176.031 449.393 184.412 450.484 194.807 463.026C205.384 475.656 205.989 486.239 206.625 496.657C206.999 504.647 207.121 512.48 216.288 519.291C225.024 526.281 234.534 526.334 244.013 526.546C255.207 527.148 266.572 527.807 279.273 536.598C291.671 545.084 292.428 551.919 292.977 558.013C293.5 562.642 293.816 566.871 302.656 571.297C311.14 575.466 319.604 576.314 327.842 577.049C338.008 578.161 347.948 579.047 358.624 583.966C369.106 588.464 369.339 591.285 369.449 593.14C369.638 594.555 369.634 595.283 377.123 596.382C375.049 596.267 372.895 596.066 370.81 595.94C360.634 594.704 360.454 593.909 360.361 592.378C360.329 590.695 360.093 588.714 352.369 585.634C344.418 582.306 336.392 581.589 328.144 580.748C317.824 579.789 307.477 578.592 295.814 573.531C283.965 567.954 283.338 562.8 282.732 557.147C282.191 552.174 281.505 546.962 272.459 540.909C263.067 534.819 253.798 534.391 244.516 533.956C232.95 533.497 221.364 533.539 209.296 524.862C197.638 515.773 197.355 506.227 197.085 496.188C196.723 487.69 196.256 479.205 188.935 469.83C181.256 460.808 174.514 459.936 168.305 459.272C160.517 458.584 153.47 458.018 146.346 445.142C139.633 432.463 138.85 420.976 138.026 409.867C137.08 401.116 136.378 392.372 131.472 383.762C126.833 375.519 123.211 375.098 119.823 374.799C116.313 374.378 113.194 373.927 109.74 363.278C106.734 352.656 105.688 342.764 104.67 333.117C103.916 325.15 103.17 317.308 101.764 309.741C101.808 307.619 101.727 305.485 101.991 303.388L102.017 303.381ZM104.401 283.549C108.303 294.244 109.131 304.221 110.121 314.17C110.696 321.959 111.44 329.798 114.768 337.636C118.431 345.406 122.098 345.789 125.99 346.19C131.29 346.655 137.267 347.182 144.845 358.139C153.119 369.502 154.081 379.73 155.191 390.392C155.994 398.811 156.602 407.65 162.891 416.816C169.585 426.078 176.04 426.875 182.991 427.766C192.194 428.643 201.531 429.749 212.68 442.644C224.453 455.548 225.41 466.386 226.361 477.215C227.038 485.621 227.713 493.917 237.139 501.668C246.236 509.635 255.609 509.953 264.893 510.504C275.787 511.517 286.95 512.4 299.423 522.282C311.474 531.972 312.255 539.641 313.013 546.885C313.612 552.413 314.172 557.5 322.539 562.895C330.947 568.003 338.942 568.707 347.027 569.483C356.964 570.461 366.848 571.403 377.566 577.5C388.134 583.021 388.363 586.954 388.642 590.132C388.79 592.446 388.956 594.245 396.633 596.264C394.461 596.358 392.348 596.506 390.232 596.538C379.954 594.297 379.662 592.26 379.475 589.485C379.347 586.789 379.086 583.746 371.288 579.86C363.379 575.863 355.468 574.935 347.501 574.182C337.524 573.354 327.453 572.243 316.15 565.986C304.574 559.032 303.86 552.873 303.256 546.11C302.573 540.171 301.851 533.999 292.848 527.163C283.875 519.935 274.653 519.461 265.573 518.824C254.43 518.06 242.864 517.601 230.375 507.491C217.923 497.092 217.252 486.964 216.44 476.365C215.782 467.689 215.002 458.89 206.712 449.257C198.47 440.074 191.089 438.983 183.893 438.065C175.026 437.235 167.009 436.301 158.661 423.633C150.397 411.15 149.555 400.218 148.492 389.598C147.853 381.154 146.899 372.774 141.19 364.492C135.814 356.239 131.184 355.829 126.681 355.432C122.043 354.918 117.804 354.479 113.113 343.822C108.937 333.373 108.016 323.606 107.16 313.909C106.52 305.961 105.814 297.946 103.433 290.134C103.564 287.904 104.047 285.701 104.37 283.55L104.401 283.549ZM109.083 263.023C114.212 274.212 115.016 284.591 115.794 294.73C116.559 302.803 117.389 310.828 121.598 318.643C126.104 326.545 130.494 326.924 135.352 327.35C141.838 327.87 148.833 328.494 157.472 339.493C166.734 350.614 167.637 360.766 168.746 370.929C169.433 379.326 170.253 387.862 177.414 396.769C184.862 405.772 192.105 406.643 199.699 407.638C209.483 408.77 219.547 409.894 231.48 422.75C243.762 435.647 244.902 446.664 246.087 457.637C247.091 466.351 247.888 474.978 257.434 483.487C266.75 492.093 275.991 492.682 284.857 493.512C295.857 494.536 306.637 495.551 318.782 506.257C330.521 516.979 331.494 525.568 332.229 533.807C332.797 540.245 333.364 546.049 341.69 552.209C349.779 558.131 357.83 558.892 365.8 559.649C375.721 560.534 385.657 561.397 396.529 568.584C407.38 575.405 407.806 580.381 408.131 584.713C408.419 587.995 408.536 590.568 416.403 593.505C414.309 593.885 412.114 594.358 409.95 594.668C399.282 591.1 399.004 587.942 398.763 584.002C398.504 580.441 398.219 576.57 390.249 571.882C382.233 566.744 374.295 566.095 366.279 565.389C356.397 564.466 346.506 563.421 335.495 556.014C324.265 547.968 323.443 540.565 322.659 532.894C321.966 526.331 321.184 519.388 312.446 511.786C303.474 503.944 294.825 503.124 285.825 502.563C274.872 501.491 263.768 500.667 250.868 489.63C238.098 478.085 236.948 467.461 235.943 456.691C235.038 447.767 234.085 438.891 225.181 429.26C216.45 419.819 208.579 418.718 200.603 417.86C191.04 416.736 182.172 415.679 172.396 403.217C163.144 391.089 162.217 380.493 161.248 370.162C160.361 361.966 159.645 353.842 153.034 345.585C146.837 337.43 141.307 336.929 136.171 336.55C130.241 335.97 124.894 335.558 119.073 324.901C113.655 314.341 112.906 304.425 111.849 294.427C111.343 286.211 110.559 277.906 107.271 269.782C107.792 267.428 108.437 265.291 109.02 262.993L109.083 263.023ZM115.579 241.547C122.113 253.318 123.059 264.146 124.178 274.934C124.798 283.265 125.524 291.511 130.668 299.632C135.975 307.702 141.372 308.07 147.025 308.699C154.391 309.063 162.339 309.704 172.115 320.918C182.111 332.162 183.051 342.138 184.061 352.316C184.95 360.399 185.626 368.806 193.509 377.493C201.521 386.428 209.499 387.4 217.524 388.234C227.805 389.366 238.442 390.642 250.755 403.256C263.293 416.008 264.49 426.969 265.803 438.064C266.871 446.938 267.757 455.747 277.293 464.768C286.703 473.776 295.55 474.487 304.421 475.339C315.098 476.346 325.474 477.36 337.469 488.934C349.081 500.144 350.044 509.646 350.91 518.838C351.524 525.842 352.118 532.61 360.338 539.491C368.472 546.092 376.489 546.796 384.435 547.55C394.574 548.328 404.723 549.228 415.886 557.591C427.394 565.608 427.762 571.634 428.246 577.053C428.562 581.281 428.808 584.828 436.989 588.672C434.816 589.375 432.518 589.958 430.325 590.547C419.155 585.649 418.869 581.257 418.544 576.292C418.133 571.774 417.793 567.101 409.617 561.399C401.374 555.63 393.139 554.803 385.095 554.258C375.213 553.336 365.296 552.454 354.238 543.987C343.123 534.83 342.352 526.538 341.416 517.891C340.824 510.507 340.105 503 331.441 494.851C322.592 486.522 314.051 485.597 305.425 484.889C294.636 483.77 283.795 482.811 270.891 471.037C257.96 458.816 256.82 447.912 255.517 436.939C254.508 428.007 253.553 419.128 244.385 409.653C235.33 400.291 226.787 399.25 218.583 398.259C208.453 397.089 198.793 395.945 188.081 383.7C177.795 371.881 176.944 361.551 175.831 351.497C175.113 343.376 174.409 335.358 167.129 327.044C160.135 318.918 153.836 318.372 147.732 317.831C140.911 317.284 134.435 316.754 127.373 305.893C121.038 295.031 120.137 284.882 119.168 274.552C118.528 265.97 117.605 257.335 113.198 248.728C113.932 246.278 114.731 243.87 115.59 241.546L115.579 241.547ZM123.797 219.205C131.782 231.604 132.997 242.909 134.277 254.261C135.085 262.898 135.857 271.593 141.875 280.067C148.034 288.393 154.231 288.819 160.604 289.34C168.995 289.808 177.767 290.349 188.355 301.859C199.27 313.294 200.172 323.558 201.191 333.727C201.965 341.904 202.643 350.086 210.962 358.825C219.569 367.527 227.759 368.426 236.29 369.341C247.022 370.404 257.813 371.526 270.311 383.929C282.948 396.471 284.086 407.373 285.341 418.392C286.342 427.221 287.409 436.212 296.85 445.441C306.115 454.593 314.743 455.411 323.324 456.163C333.883 457.266 344.27 458.291 356.029 470.24C367.691 482.015 368.697 492.057 369.352 501.978C370.02 509.647 370.614 517.034 379.015 524.612C387.204 531.878 395.335 532.606 403.516 533.265C414.078 534.253 424.625 535.23 436.439 544.796C448.338 554.026 448.788 561.057 449.136 567.469C449.517 572.378 449.808 577.101 458.697 581.978C456.197 582.875 453.917 583.684 451.64 584.378C439.85 578.246 439.47 572.728 438.971 566.472C438.612 561.184 438.109 555.539 429.533 549.016C421.016 542.552 412.589 541.645 404.085 540.948C394.039 540.169 383.884 539.162 372.856 529.69C361.678 519.739 360.868 510.602 359.906 501.011C359.321 493.231 358.503 485.105 349.96 476.561C341.353 467.742 332.849 467.162 324.319 466.247C313.807 465.097 303.199 464.159 290.417 451.896C277.655 439.347 276.461 428.271 275.005 417.341C274.166 408.483 273.158 399.551 263.823 390.216C254.623 381.111 245.977 380.199 237.319 379.139C226.637 377.914 216.477 376.907 205.122 364.937C194.131 353.217 193.105 342.943 192.278 332.966C191.399 324.874 190.787 316.646 182.947 308.285C175.313 299.829 168.339 299.435 161.518 298.887C153.504 298.181 146.138 297.704 137.984 286.578C130.33 275.319 129.324 264.545 128.33 253.882C127.428 244.843 126.33 235.632 120.948 226.528C121.852 224.153 122.804 221.709 123.818 219.231L123.797 219.205ZM133.422 196.427C143.005 209.193 144.421 220.799 146.064 232.532C147.092 241.696 148.056 250.679 154.823 259.5C161.851 268.178 168.777 268.619 175.98 269.147C185.212 269.632 194.771 270.132 206.227 281.996C217.783 293.764 218.542 304.305 219.651 314.853C220.273 323.091 221.053 331.374 229.777 340.098C238.663 348.772 247.186 349.583 255.889 350.458C266.831 351.424 277.775 352.392 290.218 364.627C302.836 376.937 303.793 387.776 305.037 398.689C305.99 407.565 306.876 416.375 316.199 425.699C325.199 435.005 333.78 435.758 342.349 436.522C352.758 437.664 363.346 438.487 375.167 450.71C386.922 462.887 387.759 473.488 388.334 483.85C388.944 491.962 389.709 500.036 398.097 508.211C406.505 516.004 414.914 516.797 423.609 517.568C434.341 518.631 445.579 519.78 457.752 530.319C470.078 540.592 470.536 548.974 470.967 556.405C471.375 562.145 471.856 567.674 481.101 573.639C478.441 574.584 476.013 575.652 473.686 576.509C461.202 568.972 460.855 562.335 460.317 555.121C459.835 548.981 459.621 542.685 450.611 535.132C441.538 527.614 432.809 526.786 424.114 526.014C413.392 525.075 403.061 524.105 391.558 513.621C380.246 502.829 379.499 493.14 378.836 482.998C378.046 474.592 377.52 466.142 368.915 457.325C360.104 448.325 351.7 447.514 343.291 446.721C332.732 445.619 322.116 444.69 309.708 432.17C297.132 419.594 295.995 408.574 294.698 397.708C293.849 388.84 292.984 380.146 283.831 370.993C274.469 361.938 265.659 361.052 256.968 360.185C245.948 359.047 235.341 357.992 223.428 346.197C211.881 334.536 210.903 324.215 210.078 314.123C209.344 305.773 208.541 297.354 200.278 288.67C192.006 279.995 184.306 279.603 176.93 279.115C167.974 278.486 159.655 277.973 150.566 266.427C141.621 254.488 140.338 243.251 139.325 232.244C138.039 222.726 136.636 213.192 129.992 203.767C131.058 201.342 132.186 198.861 133.426 196.401L133.422 196.427ZM145.168 174.851C156.378 187.711 157.862 198.747 159.322 210.302C160.771 219.77 161.866 229 169.506 238.173C177.281 247.079 185.171 247.66 192.826 248.12C202.778 248.498 213.138 249.188 225.17 261.337C237.11 273.467 238.123 284.362 238.784 295.112C239.72 303.76 240.404 312.272 249.356 321.012C258.346 329.694 267.156 330.468 275.956 331.248C286.945 332.166 297.899 333.125 310.163 345.294C322.496 357.414 323.489 368.194 324.608 378.983C325.439 387.737 326.322 396.544 335.38 405.792C344.304 415.041 352.939 415.735 361.57 416.556C372.063 417.474 382.777 418.311 394.85 430.804C406.893 442.942 407.523 453.857 408.242 464.666C408.719 473.161 409.177 481.543 417.898 490.264C426.706 498.765 435.508 499.548 444.471 500.28C455.595 501.427 466.827 502.357 479.14 513.864C491.681 525.275 492.644 534.985 493.36 543.624C493.676 550.426 494.111 556.613 503.756 563.803C501.344 564.995 498.938 566.293 496.446 567.293C483.62 558.265 482.924 550.374 482.293 542.032C481.908 535.162 481.612 527.977 472.383 519.785C463.248 511.36 453.855 510.311 444.942 509.416C433.969 508.727 423.046 507.492 411.258 496.318C399.673 484.829 398.914 474.4 398.193 463.821C397.65 455.142 397.166 446.431 388.302 437.372C379.55 428.313 370.866 427.552 362.294 426.79C351.79 425.743 341.135 424.875 329.054 412.391C316.696 399.821 315.518 388.973 314.38 378.071C313.619 369.386 312.789 360.632 303.655 351.711C294.463 342.731 285.655 341.847 276.924 341.134C265.752 340.148 254.972 339.154 242.783 327.273C230.775 315.573 229.857 305.08 229.033 294.492C228.281 285.911 227.567 277.178 218.721 268.332C210.039 259.342 201.829 258.942 193.833 258.463C184.037 257.817 174.813 257.344 164.456 245.241C154.405 232.83 152.959 221.506 151.669 210.027C150.087 200.309 148.54 191.051 140.806 181.476C142.36 179.426 143.696 177.366 145.145 174.921L145.168 174.851ZM160.093 156.128C172.357 168.179 173.773 178.654 175.164 189.309C176.166 198.116 177.556 207.529 186.086 216.693C194.614 225.836 202.814 226.112 211.34 226.809C222.207 227.605 233.072 228.285 245.288 240.501C257.448 252.774 258.259 263.87 259.054 274.737C259.731 283.644 260.338 292.365 269.347 301.279C278.414 310.134 287.308 310.819 296.168 311.543C306.94 312.433 317.757 313.278 329.915 325.548C342.142 337.775 343.146 348.544 344.199 359.265C344.972 368.076 345.857 376.771 354.826 385.835C363.758 394.958 372.376 395.674 381.119 396.377C391.891 397.267 402.708 398.113 414.866 410.382C427.071 422.492 427.943 433.532 428.623 444.514C429.231 453.353 429.668 462.116 438.639 471.088C447.582 479.817 456.564 480.782 465.517 481.408C476.621 482.327 487.316 483.045 499.438 495.376C511.607 507.64 512.871 518.17 514.039 528.281C515.207 536.336 515.781 543.603 525.424 551.903C522.837 553.133 520.614 554.614 518.506 556.11C505.636 545.294 504.482 536.122 504.142 527.129C503.185 518.864 502.176 510.565 493.061 501.757C484.1 492.796 475.243 491.958 466.288 491.446C454.942 490.384 443.921 489.359 431.754 477.594C419.826 465.453 419.105 454.76 418.523 443.799C417.856 434.882 417.239 426.052 408.325 417.044C399.308 408.026 390.613 407.255 381.937 406.597C371.109 405.651 360.451 404.758 348.391 392.39C336.203 380.012 335.162 369.279 334.03 358.478C333.372 349.801 332.545 341.05 323.525 332.03C314.498 323.003 305.765 322.289 296.916 321.554C286.021 320.654 275.098 319.803 262.795 307.902C250.543 295.862 249.692 284.917 248.777 274.031C248.179 265.183 247.552 256.343 238.638 247.334C229.678 238.261 220.772 237.699 212.096 237.041C201.87 236.58 191.625 235.909 180.28 223.546C168.994 211.012 167.882 199.828 165.856 188.114C164.74 179.4 163.547 170.785 154.739 161.783C156.36 159.799 158.126 157.649 160.064 156.095L160.093 156.128ZM179.369 141.87C192.203 152.745 193.345 161.906 193.684 170.901C194.745 179.062 195.71 187.43 204.706 196.331C213.773 205.186 222.687 205.968 231.535 206.698C242.812 207.691 253.88 208.668 266.059 220.427C278.046 232.509 278.708 243.261 279.407 254.244C280.062 263.035 280.632 271.932 289.604 280.999C298.566 289.961 307.364 290.741 315.993 291.446C326.709 292.28 337.429 293.218 349.558 305.653C361.676 318.079 362.674 328.764 363.852 339.611C364.521 348.298 365.271 356.973 374.299 366C383.363 374.97 392.176 375.742 401.022 376.474C411.964 377.327 422.821 378.112 435.191 390.057C447.34 402.111 448.297 412.928 449.034 423.853C449.702 432.77 450.282 441.658 459.242 450.731C468.157 459.759 476.982 460.358 485.784 461.024C496.002 461.36 506.255 462.156 517.648 474.472C528.783 487.045 530.033 498.176 532.131 509.845C533.19 518.615 534.278 527.223 543.248 536.288C541.512 538.157 539.822 540.076 537.819 541.967C525.497 529.857 524.072 519.374 522.671 508.729C521.794 499.91 520.348 490.557 511.808 481.308C503.288 472.268 495.088 471.992 486.507 471.239C475.696 470.499 464.822 469.716 452.606 457.499C440.449 445.342 439.645 434.254 438.899 423.206C438.244 414.415 437.624 405.568 428.558 396.711C419.491 387.856 410.664 387.237 401.737 386.447C390.918 385.604 380.148 384.711 367.934 372.498C355.833 360.284 354.762 349.443 353.66 338.771C352.899 330.086 352.116 321.285 343.145 312.201C334.165 303.009 325.48 302.365 316.792 301.601C306.01 300.7 295.193 299.855 283.093 287.66C270.763 275.424 269.968 264.445 269.336 253.416C268.737 244.681 268.174 235.909 259.282 227.018C250.254 218.103 241.196 217.352 232.335 216.628C221.354 215.814 210.47 214.925 198.473 202.719C186.304 190.455 184.936 179.915 183.745 169.806C182.685 161.645 182.062 154.424 172.649 146.146C175.111 144.904 177.163 143.464 179.386 141.87L179.369 141.87ZM201.508 130.781C214.237 139.905 214.812 147.69 215.557 156.033C215.873 162.834 216.239 170.088 225.537 178.35C234.605 186.708 244.043 187.707 252.959 188.599C263.901 189.565 274.861 190.649 286.528 201.812C298.171 213.243 298.978 223.624 299.695 234.318C300.228 242.869 300.838 251.593 309.587 260.767C318.338 269.826 327.001 270.47 335.595 271.349C346.021 272.201 356.697 273.208 368.824 285.76C381.24 298.271 382.301 309.118 383.374 319.956C384.261 328.766 385.091 337.403 394.259 346.381C403.393 355.302 412.306 356.197 421.051 356.924C432.041 357.842 442.938 358.857 455.112 370.727C467.175 382.484 468.097 392.862 468.931 403.578C469.692 412.263 470.407 420.883 479.101 429.881C487.822 438.697 495.983 439.147 504.085 439.633C513.708 440.202 523.105 440.752 533.412 452.905C543.51 465.269 544.783 476.514 546.246 488.072C547.828 497.79 549.394 507.162 557.224 516.642C555.572 518.789 554.076 520.898 552.767 523.198C541.51 510.502 540.142 499.37 538.563 487.796C537.107 478.203 536.009 468.992 528.435 459.981C520.516 450.836 512.808 450.318 505.097 449.916C495.041 449.53 484.681 448.839 472.638 436.701C460.71 424.56 459.848 413.626 459.025 402.926C458.32 394.184 457.51 385.66 448.624 376.986C439.635 368.304 430.71 367.511 422.025 366.75C410.92 365.83 400.034 364.92 387.665 352.745C375.325 340.519 374.339 329.845 373.161 319.115C372.322 310.257 371.55 301.449 362.514 292.314C353.571 282.95 345.012 282.315 336.374 281.501C325.812 280.513 315.045 279.623 303.049 267.319C291.046 255.008 290.412 244.091 289.648 233.332C289.124 224.884 288.657 216.512 280.003 207.857C271.195 199.357 262.289 198.565 253.526 197.744C242.25 196.634 231.076 195.762 218.704 184.314C206.152 172.797 205.317 163.215 204.517 154.298C204.103 147.706 203.708 141.458 194.187 134.298C196.599 133.106 198.901 131.912 201.486 130.798L201.508 130.781ZM224.314 121.491C236.636 129.19 236.914 135.646 237.455 142.975C237.887 149.165 238.226 155.469 247.277 162.87C256.279 170.433 265.032 171.263 273.717 172.024C284.327 172.964 294.876 173.939 306.206 184.351C317.678 195.095 318.324 204.89 319.087 215.038C319.843 223.504 320.46 231.837 329.036 240.816C337.788 249.875 346.174 250.433 354.591 251.35C365.036 252.339 375.806 253.209 388.174 265.902C400.763 278.491 401.776 289.386 403.146 300.402C404.024 309.109 404.908 317.916 414.169 327.078C423.475 336.077 432.216 336.894 440.987 337.841C451.94 338.913 462.567 339.97 474.563 351.771C486.119 363.423 487.136 373.706 487.926 383.858C488.612 392.255 489.478 400.836 497.697 409.458C505.902 418.066 513.669 418.524 521.14 418.918C529.875 419.517 538.426 420.049 547.456 431.653C556.332 443.523 557.66 454.827 558.744 465.789C559.984 475.354 561.384 484.891 567.933 494.411C566.853 496.822 565.798 499.258 564.421 501.604C554.964 488.845 553.367 477.176 551.904 465.623C550.915 456.308 549.959 447.429 543.134 438.55C536.037 429.802 529.113 429.363 521.907 428.95C512.676 428.352 503.06 427.909 491.784 415.999C480.206 404.232 479.394 393.633 478.347 383.129C477.622 374.883 477.105 366.56 468.221 357.884C459.288 349.258 450.699 348.38 442.024 347.629C430.957 346.539 420.121 345.58 407.625 333.392C395.056 321.035 394.051 310.243 392.874 299.397C391.912 290.417 390.97 281.664 381.748 272.329C372.587 263.072 364.131 262.215 355.558 261.565C345.083 260.357 334.562 259.487 322.779 247.201C311.014 235.034 310.13 224.368 309.621 214.19C308.856 206.116 308.303 197.948 299.811 189.876C291.391 181.977 282.823 181.328 274.299 180.519C263.463 179.447 252.329 178.308 240.137 167.655C227.755 157.326 227.143 149.098 226.879 141.638C226.474 135.783 226.065 130.427 216.801 124.46C219.282 123.449 221.783 122.44 224.32 121.486L224.314 121.491ZM246.361 113.706C258.151 119.951 258.472 125.415 258.954 131.554C259.372 136.901 259.768 142.535 268.336 148.955C276.92 155.581 285.339 156.384 293.793 157.126C303.825 158.009 314.03 158.853 325.07 168.336C336.248 178.266 337.066 187.528 337.961 196.958C338.658 204.849 339.423 212.922 348.022 221.522C356.696 230.408 365.152 231.035 373.504 231.884C384.066 232.872 394.845 233.887 407.472 246.301C420.271 258.793 421.465 269.868 422.871 280.731C423.824 289.608 424.775 298.464 433.997 307.8C443.381 316.971 452.015 317.895 460.663 318.832C471.231 320.038 481.515 321.054 492.927 333.1C503.929 344.83 504.935 354.99 505.818 365.023C506.603 373.211 507.214 381.438 515.055 389.799C522.734 398.188 529.661 398.63 536.425 399.121C544.364 399.77 552.025 400.335 559.948 411.442C567.611 422.809 568.608 433.475 569.545 444.195C570.506 453.292 571.765 462.469 577.049 471.671C576.193 473.998 575.296 476.498 574.227 478.92C566.252 466.513 564.854 455.139 563.515 443.826C562.801 435.094 562.096 426.464 556.215 418.11C549.923 409.553 543.677 409.178 537.304 408.774C528.915 408.213 520.124 407.649 509.553 396.254C498.694 384.763 497.736 374.443 496.892 364.35C495.996 356.05 495.393 347.926 487.017 339.244C478.41 330.542 470.201 329.528 461.566 328.717C450.778 327.598 439.987 326.477 427.532 314.116C414.886 301.584 413.768 290.683 412.523 279.769C411.514 270.837 410.55 261.854 401.12 252.615C391.844 243.452 383.158 242.576 374.577 241.823C364.009 240.617 353.505 239.687 341.768 227.738C330.156 215.913 329.262 205.87 328.568 196.122C327.83 188.384 327.23 181.009 318.952 173.441C310.685 166.114 302.517 165.445 294.279 164.711C283.717 163.723 273.179 162.737 261.356 153.18C249.431 144.131 249.073 137.098 248.776 130.528C248.455 125.585 248.048 120.953 239.284 116.201C241.611 115.344 243.947 114.473 246.343 113.686L246.361 113.706ZM267.589 107.577C278.714 112.429 278.919 116.741 279.37 121.832C279.683 126.175 280.071 131.072 288.289 136.621C296.484 142.437 304.711 143.161 312.763 143.809C322.703 144.695 332.688 145.625 343.69 154.15C354.842 163.249 355.576 171.486 356.462 180.296C357.104 187.517 357.859 194.966 366.543 203.23C375.335 211.502 383.914 212.37 392.503 213.247C403.225 214.3 414.228 215.231 427.073 227.041C440.026 239.266 441.041 250.158 442.331 261.139C443.4 270.038 444.421 278.959 453.638 288.389C462.531 297.802 471.176 298.714 479.488 299.736C489.435 300.955 499.23 302.098 509.99 314.295C520.216 326.172 521.172 336.49 522.172 346.544C522.901 354.676 523.661 362.749 530.885 370.986C537.751 379.101 544.075 379.649 550.055 380.18C557.107 380.746 563.546 381.314 570.489 392.175C576.928 403.045 577.881 413.147 578.85 423.478C579.486 432.037 580.392 440.849 584.773 449.467C583.983 451.861 583.229 454.197 582.487 456.543C575.896 444.715 574.784 433.915 573.896 423.146C573.163 414.796 572.485 406.503 567.301 398.442C561.994 390.372 556.636 389.943 550.935 389.384C543.397 388.947 535.555 388.313 525.957 377.165C515.891 365.873 514.836 355.878 513.898 345.768C513.114 337.58 512.436 329.286 504.509 320.532C496.447 311.646 488.47 310.652 480.388 309.784C470.039 308.583 459.577 307.388 447.217 294.821C434.561 282.052 433.414 271.041 432.112 260.069C431.103 251.137 430.099 242.305 420.634 233.242C411.221 224.349 402.26 223.614 393.679 222.749C382.834 221.686 372.339 220.652 360.456 209.078C348.774 197.798 347.891 188.377 347.031 179.29C346.361 172.229 345.764 165.459 337.604 158.637C329.457 152.047 321.396 151.276 313.437 150.625C303.337 149.675 293.129 148.828 281.939 140.519C270.431 132.502 270.017 126.544 269.743 120.92C269.382 116.855 269.159 113.141 260.886 109.395C263.078 108.806 265.308 108.159 267.606 107.576L267.589 107.577ZM287.93 103.437C298.541 106.948 298.875 110.163 299.117 114.103C299.365 117.536 299.66 121.535 307.631 126.222C315.636 131.233 323.575 131.882 331.495 132.688C341.424 133.676 351.351 134.548 362.383 142.072C373.71 150.02 374.36 157.35 375.212 165.086C375.924 171.763 376.687 178.592 385.425 186.311C394.342 194.097 403.037 194.869 411.988 195.476C422.988 196.5 434.2 197.332 447.048 208.417C459.868 219.912 460.767 230.675 461.938 241.416C462.872 250.178 463.881 259.11 472.687 268.722C481.532 278.182 489.404 279.261 497.313 280.074C506.935 281.256 515.8 282.198 525.584 294.764C534.881 306.825 535.867 317.385 536.779 327.772C537.619 336.016 538.279 344.083 544.829 352.38C551.143 360.552 556.613 360.979 561.762 361.484C567.742 362.014 573.145 362.487 578.895 373.072C584.254 383.669 585.127 393.595 586.013 403.535C586.633 411.754 587.311 420.048 590.77 428.245C590.086 430.533 589.553 432.786 588.965 434.979C583.778 423.826 582.927 413.515 582.08 403.306C581.421 395.244 580.762 387.177 576.429 379.352C571.934 371.46 567.486 371.119 562.742 370.712C556.2 370.135 549.205 369.512 540.452 358.494C531.353 347.342 530.334 337.173 529.386 327.072C528.644 318.619 527.785 310.144 520.66 301.174C513.154 292.229 505.857 291.3 498.384 290.407C488.486 289.256 478.366 288.076 466.536 275.229C454.132 262.21 453.011 251.307 451.834 240.46C450.785 231.701 449.954 222.946 440.478 214.507C431.087 205.843 421.815 205.418 413.062 204.587C402.061 203.564 391.217 202.501 379.14 191.749C367.399 181.14 366.406 172.549 365.729 164.143C365.065 157.934 364.477 151.878 356.171 145.837C348.026 139.859 339.958 139.199 332.173 138.397C322.188 137.466 312.267 136.699 301.387 129.518C290.545 122.688 290.052 117.646 289.777 113.264C289.497 110.108 289.316 107.353 281.446 104.531C283.484 104.208 285.688 103.725 287.955 103.424L287.93 103.437ZM307.694 101.483C317.982 103.965 318.237 106.061 318.411 108.709C318.586 111.358 318.858 114.411 326.575 118.217C334.429 122.271 342.455 123.083 350.394 123.732C360.399 124.777 370.444 125.786 381.753 132.149C393.388 139.044 393.937 145.255 394.658 152.036C395.285 157.919 395.994 164.077 404.993 170.811C414.082 178.04 423.188 178.513 432.211 179.187C443.432 180.124 455.112 180.489 467.582 190.598C479.972 201.031 480.705 211.125 481.403 221.592C482.117 230.324 482.958 239.201 491.19 248.759C499.558 257.95 506.883 259.102 514.057 259.904C522.925 260.753 531.063 261.678 539.459 274.411C547.779 286.837 548.519 297.78 549.469 308.381C550.165 316.906 551.07 325.309 556.8 333.707C562.329 341.806 566.96 342.216 571.129 342.586C576.102 343.127 580.284 343.511 584.98 354.271C589.156 364.72 589.953 374.476 590.863 384.114C591.455 392.11 592.267 400.136 594.753 407.976C594.288 410.274 594.032 412.379 593.654 414.589C589.786 403.832 588.981 393.86 588.097 383.94C587.353 376.095 586.541 368.187 583.229 360.443C579.564 352.558 576.018 352.31 572.056 351.84C566.709 351.422 560.829 350.797 553.143 339.927C544.916 328.517 543.966 318.299 542.922 307.681C542.169 299.1 541.55 290.272 535.2 281.141C528.459 271.926 522.004 271.129 514.994 270.297C505.897 269.336 496.457 268.222 485.193 255.421C473.517 242.419 472.463 231.678 471.514 220.965C470.806 212.451 470.141 204.166 460.773 196.335C451.569 188.475 442.253 188.1 433.069 187.567C422.021 186.591 410.799 185.767 398.491 175.725C386.328 166.035 385.59 158.296 384.901 151.122C384.313 145.7 383.695 140.554 375.317 135.053C366.996 130.129 358.865 129.4 350.898 128.534C340.949 127.545 331.029 126.661 320.358 120.629C309.733 114.935 309.514 111.11 309.273 107.894C309.069 105.637 308.911 103.828 301.307 101.981C303.356 101.765 305.536 101.683 307.698 101.466L307.694 101.483Z" fill="url(#paint0_linear_562_2245)" fill-opacity="0.1"/>
<mask id="mask0_562_2245" style="mask-type:alpha" maskUnits="userSpaceOnUse" x="101" y="101" width="496" height="496">
<path d="M327.13 102.2C337.307 103.323 337.333 104.154 337.396 105.674C337.604 107.32 337.836 109.415 345.558 112.492C353.463 115.775 361.534 116.538 369.627 117.417C380.005 118.339 390.623 119.382 402.158 124.432C414.027 130.123 414.481 135.317 415.204 140.97C415.815 145.895 416.487 151.099 425.468 157.104C434.801 163.366 444.184 163.677 453.347 164.093C464.913 164.552 476.722 164.426 488.562 173.082C500.373 182.016 500.512 191.707 500.839 201.821C501.249 210.25 501.676 218.907 509.027 228.118C516.707 237.141 523.448 238.012 529.771 238.696C537.51 239.433 544.599 239.824 551.778 252.779C558.433 265.399 559.237 277.002 560.004 288.149C560.764 296.946 561.595 305.588 566.509 314.301C571.205 322.488 574.877 322.881 578.264 323.292C581.822 323.666 584.827 323.985 588.291 334.757C591.297 345.379 592.392 355.222 593.372 365.047C593.999 372.869 594.75 380.733 596.385 388.316C596.347 390.543 596.143 392.601 596.149 394.678C593.332 384.341 592.573 374.545 591.603 364.829C590.859 356.985 590.103 349.02 587.463 341.351C584.736 333.273 582.031 333.043 579.266 332.733C574.932 332.411 570.18 331.878 563.435 320.701C556.526 309.17 555.474 298.332 554.458 287.551C553.886 278.54 553.288 269.308 547.888 260.11C542.284 250.594 536.529 249.977 530.32 249.43C522.018 248.649 513.593 247.628 503.291 234.946C492.617 222.413 491.909 211.842 491.275 201.538C490.892 193.557 490.706 185.543 481.545 178.86C472.809 171.869 463.509 171.718 453.98 171.669C442.672 170.952 431.229 170.216 418.653 161.434C406.324 153.017 405.498 146.225 404.902 140.066C404.379 135.437 403.949 131.189 395.236 126.909C386.741 122.633 378.335 121.844 370.089 121.005C359.912 119.883 349.991 119.116 339.355 114.041C328.831 109.696 328.531 106.922 328.518 104.856C328.301 103.603 328.161 102.752 320.7 101.758C322.834 101.84 324.984 102.131 327.118 102.212L327.13 102.2ZM102.017 303.381C104.603 313.677 105.411 323.444 106.449 333.211C107.089 341.047 108.074 349.034 110.608 356.804C113.439 364.777 115.971 364.93 118.909 365.317C123.022 365.631 127.939 366.116 134.474 377.392C141.582 388.814 142.541 399.655 143.661 410.443C144.233 419.455 144.781 428.736 150.231 437.885C155.718 447.496 161.372 448.102 167.729 448.612C176.031 449.393 184.412 450.484 194.807 463.026C205.384 475.656 205.989 486.239 206.625 496.657C206.999 504.647 207.121 512.48 216.288 519.291C225.024 526.281 234.534 526.334 244.013 526.546C255.207 527.148 266.572 527.807 279.273 536.598C291.671 545.084 292.428 551.919 292.977 558.013C293.5 562.642 293.816 566.871 302.656 571.297C311.14 575.466 319.604 576.314 327.842 577.049C338.008 578.161 347.948 579.047 358.624 583.966C369.106 588.464 369.339 591.285 369.449 593.14C369.638 594.555 369.634 595.283 377.123 596.382C375.049 596.267 372.895 596.066 370.81 595.94C360.634 594.704 360.454 593.909 360.361 592.378C360.329 590.695 360.093 588.714 352.369 585.634C344.418 582.306 336.392 581.589 328.144 580.748C317.824 579.789 307.477 578.592 295.814 573.531C283.965 567.954 283.338 562.8 282.732 557.147C282.191 552.174 281.505 546.962 272.459 540.909C263.067 534.819 253.798 534.391 244.516 533.956C232.95 533.497 221.364 533.539 209.296 524.862C197.638 515.773 197.355 506.227 197.085 496.188C196.723 487.69 196.256 479.205 188.935 469.83C181.256 460.808 174.514 459.936 168.305 459.272C160.517 458.584 153.47 458.018 146.346 445.142C139.633 432.463 138.85 420.976 138.026 409.867C137.08 401.116 136.378 392.372 131.472 383.762C126.833 375.519 123.211 375.098 119.823 374.799C116.313 374.378 113.194 373.927 109.74 363.278C106.734 352.656 105.688 342.764 104.67 333.117C103.916 325.15 103.17 317.308 101.764 309.741C101.808 307.619 101.727 305.485 101.991 303.388L102.017 303.381ZM104.401 283.549C108.303 294.244 109.131 304.221 110.121 314.17C110.696 321.959 111.44 329.798 114.768 337.636C118.431 345.406 122.098 345.789 125.99 346.19C131.29 346.655 137.267 347.182 144.845 358.139C153.119 369.502 154.081 379.73 155.191 390.392C155.994 398.811 156.602 407.65 162.891 416.816C169.585 426.078 176.04 426.875 182.991 427.766C192.194 428.643 201.531 429.749 212.68 442.644C224.453 455.548 225.41 466.386 226.361 477.215C227.038 485.621 227.713 493.917 237.139 501.668C246.236 509.635 255.609 509.953 264.893 510.504C275.787 511.517 286.95 512.4 299.423 522.282C311.474 531.972 312.255 539.641 313.013 546.885C313.612 552.413 314.172 557.5 322.539 562.895C330.947 568.003 338.942 568.707 347.027 569.483C356.964 570.461 366.848 571.403 377.566 577.5C388.134 583.021 388.363 586.954 388.642 590.132C388.79 592.446 388.956 594.245 396.633 596.264C394.461 596.358 392.348 596.506 390.232 596.538C379.954 594.297 379.662 592.26 379.475 589.485C379.347 586.789 379.086 583.746 371.288 579.86C363.379 575.863 355.468 574.935 347.501 574.182C337.524 573.354 327.453 572.243 316.15 565.986C304.574 559.032 303.86 552.873 303.256 546.11C302.573 540.171 301.851 533.999 292.848 527.163C283.875 519.935 274.653 519.461 265.573 518.824C254.43 518.06 242.864 517.601 230.375 507.491C217.923 497.092 217.252 486.964 216.44 476.365C215.782 467.689 215.002 458.89 206.712 449.257C198.47 440.074 191.089 438.983 183.893 438.065C175.026 437.235 167.009 436.301 158.661 423.633C150.397 411.15 149.555 400.218 148.492 389.598C147.853 381.154 146.899 372.774 141.19 364.492C135.814 356.239 131.184 355.829 126.681 355.432C122.043 354.918 117.804 354.479 113.113 343.822C108.937 333.373 108.016 323.606 107.16 313.909C106.52 305.961 105.814 297.946 103.433 290.134C103.564 287.904 104.047 285.701 104.37 283.55L104.401 283.549ZM109.083 263.023C114.212 274.212 115.016 284.591 115.794 294.73C116.559 302.803 117.389 310.828 121.598 318.643C126.104 326.545 130.494 326.924 135.352 327.35C141.838 327.87 148.833 328.494 157.472 339.493C166.734 350.614 167.637 360.766 168.746 370.929C169.433 379.326 170.253 387.862 177.414 396.769C184.862 405.772 192.105 406.643 199.699 407.638C209.483 408.77 219.547 409.894 231.48 422.75C243.762 435.647 244.902 446.664 246.087 457.637C247.091 466.351 247.888 474.978 257.434 483.487C266.75 492.093 275.991 492.682 284.857 493.512C295.857 494.536 306.637 495.551 318.782 506.257C330.521 516.979 331.494 525.568 332.229 533.807C332.797 540.245 333.364 546.049 341.69 552.209C349.779 558.131 357.83 558.892 365.8 559.649C375.721 560.534 385.657 561.397 396.529 568.584C407.38 575.405 407.806 580.381 408.131 584.713C408.419 587.995 408.536 590.568 416.403 593.505C414.309 593.885 412.114 594.358 409.95 594.668C399.282 591.1 399.004 587.942 398.763 584.002C398.504 580.441 398.219 576.57 390.249 571.882C382.233 566.744 374.295 566.095 366.279 565.389C356.397 564.466 346.506 563.421 335.495 556.014C324.265 547.968 323.443 540.565 322.659 532.894C321.966 526.331 321.184 519.388 312.446 511.786C303.474 503.944 294.825 503.124 285.825 502.563C274.872 501.491 263.768 500.667 250.868 489.63C238.098 478.085 236.948 467.461 235.943 456.691C235.038 447.767 234.085 438.891 225.181 429.26C216.45 419.819 208.579 418.718 200.603 417.86C191.04 416.736 182.172 415.679 172.396 403.217C163.144 391.089 162.217 380.493 161.248 370.162C160.361 361.966 159.645 353.842 153.034 345.585C146.837 337.43 141.307 336.929 136.171 336.55C130.241 335.97 124.894 335.558 119.073 324.901C113.655 314.341 112.906 304.425 111.849 294.427C111.343 286.211 110.559 277.906 107.271 269.782C107.792 267.428 108.437 265.291 109.02 262.993L109.083 263.023ZM115.579 241.547C122.113 253.318 123.059 264.146 124.178 274.934C124.798 283.265 125.524 291.511 130.668 299.632C135.975 307.702 141.372 308.07 147.025 308.699C154.391 309.063 162.339 309.704 172.115 320.918C182.111 332.162 183.051 342.138 184.061 352.316C184.95 360.399 185.626 368.806 193.509 377.493C201.521 386.428 209.499 387.4 217.524 388.234C227.805 389.366 238.442 390.642 250.755 403.256C263.293 416.008 264.49 426.969 265.803 438.064C266.871 446.938 267.757 455.747 277.293 464.768C286.703 473.776 295.55 474.487 304.421 475.339C315.098 476.346 325.474 477.36 337.469 488.934C349.081 500.144 350.044 509.646 350.91 518.838C351.524 525.842 352.118 532.61 360.338 539.491C368.472 546.092 376.489 546.796 384.435 547.55C394.574 548.328 404.723 549.228 415.886 557.591C427.394 565.608 427.762 571.634 428.246 577.053C428.562 581.281 428.808 584.828 436.989 588.672C434.816 589.375 432.518 589.958 430.325 590.547C419.155 585.649 418.869 581.257 418.544 576.292C418.133 571.774 417.793 567.101 409.617 561.399C401.374 555.63 393.139 554.803 385.095 554.258C375.213 553.336 365.296 552.454 354.238 543.987C343.123 534.83 342.352 526.538 341.416 517.891C340.824 510.507 340.105 503 331.441 494.851C322.592 486.522 314.051 485.597 305.425 484.889C294.636 483.77 283.795 482.811 270.891 471.037C257.96 458.816 256.82 447.912 255.517 436.939C254.508 428.007 253.553 419.128 244.385 409.653C235.33 400.291 226.787 399.25 218.583 398.259C208.453 397.089 198.793 395.945 188.081 383.7C177.795 371.881 176.944 361.551 175.831 351.497C175.113 343.376 174.409 335.358 167.129 327.044C160.135 318.918 153.836 318.372 147.732 317.831C140.911 317.284 134.435 316.754 127.373 305.893C121.038 295.031 120.137 284.882 119.168 274.552C118.528 265.97 117.605 257.335 113.198 248.728C113.932 246.278 114.731 243.87 115.59 241.546L115.579 241.547ZM123.797 219.205C131.782 231.604 132.997 242.909 134.277 254.261C135.085 262.898 135.857 271.593 141.875 280.067C148.034 288.393 154.231 288.819 160.604 289.34C168.995 289.808 177.767 290.349 188.355 301.859C199.27 313.294 200.172 323.558 201.191 333.727C201.965 341.904 202.643 350.086 210.962 358.825C219.569 367.527 227.759 368.426 236.29 369.341C247.022 370.404 257.813 371.526 270.311 383.929C282.948 396.471 284.086 407.373 285.341 418.392C286.342 427.221 287.409 436.212 296.85 445.441C306.115 454.593 314.743 455.411 323.324 456.163C333.883 457.266 344.27 458.291 356.029 470.24C367.691 482.015 368.697 492.057 369.352 501.978C370.02 509.647 370.614 517.034 379.015 524.612C387.204 531.878 395.335 532.606 403.516 533.265C414.078 534.253 424.625 535.23 436.439 544.796C448.338 554.026 448.788 561.057 449.136 567.469C449.517 572.378 449.808 577.101 458.697 581.978C456.197 582.875 453.917 583.684 451.64 584.378C439.85 578.246 439.47 572.728 438.971 566.472C438.612 561.184 438.109 555.539 429.533 549.016C421.016 542.552 412.589 541.645 404.085 540.948C394.039 540.169 383.884 539.162 372.856 529.69C361.678 519.739 360.868 510.602 359.906 501.011C359.321 493.231 358.503 485.105 349.96 476.561C341.353 467.742 332.849 467.162 324.319 466.247C313.807 465.097 303.199 464.159 290.417 451.896C277.655 439.347 276.461 428.271 275.005 417.341C274.166 408.483 273.158 399.551 263.823 390.216C254.623 381.111 245.977 380.199 237.319 379.139C226.637 377.914 216.477 376.907 205.122 364.937C194.131 353.217 193.105 342.943 192.278 332.966C191.399 324.874 190.787 316.646 182.947 308.285C175.313 299.829 168.339 299.435 161.518 298.887C153.504 298.181 146.138 297.704 137.984 286.578C130.33 275.319 129.324 264.545 128.33 253.882C127.428 244.843 126.33 235.632 120.948 226.528C121.852 224.153 122.804 221.709 123.818 219.231L123.797 219.205ZM133.422 196.427C143.005 209.193 144.421 220.799 146.064 232.532C147.092 241.696 148.056 250.679 154.823 259.5C161.851 268.178 168.777 268.619 175.98 269.147C185.212 269.632 194.771 270.132 206.227 281.996C217.783 293.764 218.542 304.305 219.651 314.853C220.273 323.091 221.053 331.374 229.777 340.098C238.663 348.772 247.186 349.583 255.889 350.458C266.831 351.424 277.775 352.392 290.218 364.627C302.836 376.937 303.793 387.776 305.037 398.689C305.99 407.565 306.876 416.375 316.199 425.699C325.199 435.005 333.78 435.758 342.349 436.522C352.758 437.664 363.346 438.487 375.167 450.71C386.922 462.887 387.759 473.488 388.334 483.85C388.944 491.962 389.709 500.036 398.097 508.211C406.505 516.004 414.914 516.797 423.609 517.568C434.341 518.631 445.579 519.78 457.752 530.319C470.078 540.592 470.536 548.974 470.967 556.405C471.375 562.145 471.856 567.674 481.101 573.639C478.441 574.584 476.013 575.652 473.686 576.509C461.202 568.972 460.855 562.335 460.317 555.121C459.835 548.981 459.621 542.685 450.611 535.132C441.538 527.614 432.809 526.786 424.114 526.014C413.392 525.075 403.061 524.105 391.558 513.621C380.246 502.829 379.499 493.14 378.836 482.998C378.046 474.592 377.52 466.142 368.915 457.325C360.104 448.325 351.7 447.514 343.291 446.721C332.732 445.619 322.116 444.69 309.708 432.17C297.132 419.594 295.995 408.574 294.698 397.708C293.849 388.84 292.984 380.146 283.831 370.993C274.469 361.938 265.659 361.052 256.968 360.185C245.948 359.047 235.341 357.992 223.428 346.197C211.881 334.536 210.903 324.215 210.078 314.123C209.344 305.773 208.541 297.354 200.278 288.67C192.006 279.995 184.306 279.603 176.93 279.115C167.974 278.486 159.655 277.973 150.566 266.427C141.621 254.488 140.338 243.251 139.325 232.244C138.039 222.726 136.636 213.192 129.992 203.767C131.058 201.342 132.186 198.861 133.426 196.401L133.422 196.427ZM145.168 174.851C156.378 187.711 157.862 198.747 159.322 210.302C160.771 219.77 161.866 229 169.506 238.173C177.281 247.079 185.171 247.66 192.826 248.12C202.778 248.498 213.138 249.188 225.17 261.337C237.11 273.467 238.123 284.362 238.784 295.112C239.72 303.76 240.404 312.272 249.356 321.012C258.346 329.694 267.156 330.468 275.956 331.248C286.945 332.166 297.899 333.125 310.163 345.294C322.496 357.414 323.489 368.194 324.608 378.983C325.439 387.737 326.322 396.544 335.38 405.792C344.304 415.041 352.939 415.735 361.57 416.556C372.063 417.474 382.777 418.311 394.85 430.804C406.893 442.942 407.523 453.857 408.242 464.666C408.719 473.161 409.177 481.543 417.898 490.264C426.706 498.765 435.508 499.548 444.471 500.28C455.595 501.427 466.827 502.357 479.14 513.864C491.681 525.275 492.644 534.985 493.36 543.624C493.676 550.426 494.111 556.613 503.756 563.803C501.344 564.995 498.938 566.293 496.446 567.293C483.62 558.265 482.924 550.374 482.293 542.032C481.908 535.162 481.612 527.977 472.383 519.785C463.248 511.36 453.855 510.311 444.942 509.416C433.969 508.727 423.046 507.492 411.258 496.318C399.673 484.829 398.914 474.4 398.193 463.821C397.65 455.142 397.166 446.431 388.302 437.372C379.55 428.313 370.866 427.552 362.294 426.79C351.79 425.743 341.135 424.875 329.054 412.391C316.696 399.821 315.518 388.973 314.38 378.071C313.619 369.386 312.789 360.632 303.655 351.711C294.463 342.731 285.655 341.847 276.924 341.134C265.752 340.148 254.972 339.154 242.783 327.273C230.775 315.573 229.857 305.08 229.033 294.492C228.281 285.911 227.567 277.178 218.721 268.332C210.039 259.342 201.829 258.942 193.833 258.463C184.037 257.817 174.813 257.344 164.456 245.241C154.405 232.83 152.959 221.506 151.669 210.027C150.087 200.309 148.54 191.051 140.806 181.476C142.36 179.426 143.696 177.366 145.145 174.921L145.168 174.851ZM160.093 156.128C172.357 168.179 173.773 178.654 175.164 189.309C176.166 198.116 177.556 207.529 186.086 216.693C194.614 225.836 202.814 226.112 211.34 226.809C222.207 227.605 233.072 228.285 245.288 240.501C257.448 252.774 258.259 263.87 259.054 274.737C259.731 283.644 260.338 292.365 269.347 301.279C278.414 310.134 287.308 310.819 296.168 311.543C306.94 312.433 317.757 313.278 329.915 325.548C342.142 337.775 343.146 348.544 344.199 359.265C344.972 368.076 345.857 376.771 354.826 385.835C363.758 394.958 372.376 395.674 381.119 396.377C391.891 397.267 402.708 398.113 414.866 410.382C427.071 422.492 427.943 433.532 428.623 444.514C429.231 453.353 429.668 462.116 438.639 471.088C447.582 479.817 456.564 480.782 465.517 481.408C476.621 482.327 487.316 483.045 499.438 495.376C511.607 507.64 512.871 518.17 514.039 528.281C515.207 536.336 515.781 543.603 525.424 551.903C522.837 553.133 520.614 554.614 518.506 556.11C505.636 545.294 504.482 536.122 504.142 527.129C503.185 518.864 502.176 510.565 493.061 501.757C484.1 492.796 475.243 491.958 466.288 491.446C454.942 490.384 443.921 489.359 431.754 477.594C419.826 465.453 419.105 454.76 418.523 443.799C417.856 434.882 417.239 426.052 408.325 417.044C399.308 408.026 390.613 407.255 381.937 406.597C371.109 405.651 360.451 404.758 348.391 392.39C336.203 380.012 335.162 369.279 334.03 358.478C333.372 349.801 332.545 341.05 323.525 332.03C314.498 323.003 305.765 322.289 296.916 321.554C286.021 320.654 275.098 319.803 262.795 307.902C250.543 295.862 249.692 284.917 248.777 274.031C248.179 265.183 247.552 256.343 238.638 247.334C229.678 238.261 220.772 237.699 212.096 237.041C201.87 236.58 191.625 235.909 180.28 223.546C168.994 211.012 167.882 199.828 165.856 188.114C164.74 179.4 163.547 170.785 154.739 161.783C156.36 159.799 158.126 157.649 160.064 156.095L160.093 156.128ZM179.369 141.87C192.203 152.745 193.345 161.906 193.684 170.901C194.745 179.062 195.71 187.43 204.706 196.331C213.773 205.186 222.687 205.968 231.535 206.698C242.812 207.691 253.88 208.668 266.059 220.427C278.046 232.509 278.708 243.261 279.407 254.244C280.062 263.035 280.632 271.932 289.604 280.999C298.566 289.961 307.364 290.741 315.993 291.446C326.709 292.28 337.429 293.218 349.558 305.653C361.676 318.079 362.674 328.764 363.852 339.611C364.521 348.298 365.271 356.973 374.299 366C383.363 374.97 392.176 375.742 401.022 376.474C411.964 377.327 422.821 378.112 435.191 390.057C447.34 402.111 448.297 412.928 449.034 423.853C449.702 432.77 450.282 441.658 459.242 450.731C468.157 459.759 476.982 460.358 485.784 461.024C496.002 461.36 506.255 462.156 517.648 474.472C528.783 487.045 530.033 498.176 532.131 509.845C533.19 518.615 534.278 527.223 543.248 536.288C541.512 538.157 539.822 540.076 537.819 541.967C525.497 529.857 524.072 519.374 522.671 508.729C521.794 499.91 520.348 490.557 511.808 481.308C503.288 472.268 495.088 471.992 486.507 471.239C475.696 470.499 464.822 469.716 452.606 457.499C440.449 445.342 439.645 434.254 438.899 423.206C438.244 414.415 437.624 405.568 428.558 396.711C419.491 387.856 410.664 387.237 401.737 386.447C390.918 385.604 380.148 384.711 367.934 372.498C355.833 360.284 354.762 349.443 353.66 338.771C352.899 330.086 352.116 321.285 343.145 312.201C334.165 303.009 325.48 302.365 316.792 301.601C306.01 300.7 295.193 299.855 283.093 287.66C270.763 275.424 269.968 264.445 269.336 253.416C268.737 244.681 268.174 235.909 259.282 227.018C250.254 218.103 241.196 217.352 232.335 216.628C221.354 215.814 210.47 214.925 198.473 202.719C186.304 190.455 184.936 179.915 183.745 169.806C182.685 161.645 182.062 154.424 172.649 146.146C175.111 144.904 177.163 143.464 179.386 141.87L179.369 141.87ZM201.508 130.781C214.237 139.905 214.812 147.69 215.557 156.033C215.873 162.834 216.239 170.088 225.537 178.35C234.605 186.708 244.043 187.707 252.959 188.599C263.901 189.565 274.861 190.649 286.528 201.812C298.171 213.243 298.978 223.624 299.695 234.318C300.228 242.869 300.838 251.593 309.587 260.767C318.338 269.826 327.001 270.47 335.595 271.349C346.021 272.201 356.697 273.208 368.824 285.76C381.24 298.271 382.301 309.118 383.374 319.956C384.261 328.766 385.091 337.403 394.259 346.381C403.393 355.302 412.306 356.197 421.051 356.924C432.041 357.842 442.938 358.857 455.112 370.727C467.175 382.484 468.097 392.862 468.931 403.578C469.692 412.263 470.407 420.883 479.101 429.881C487.822 438.697 495.983 439.147 504.085 439.633C513.708 440.202 523.105 440.752 533.412 452.905C543.51 465.269 544.783 476.514 546.246 488.072C547.828 497.79 549.394 507.162 557.224 516.642C555.572 518.789 554.076 520.898 552.767 523.198C541.51 510.502 540.142 499.37 538.563 487.796C537.107 478.203 536.009 468.992 528.435 459.981C520.516 450.836 512.808 450.318 505.097 449.916C495.041 449.53 484.681 448.839 472.638 436.701C460.71 424.56 459.848 413.626 459.025 402.926C458.32 394.184 457.51 385.66 448.624 376.986C439.635 368.304 430.71 367.511 422.025 366.75C410.92 365.83 400.034 364.92 387.665 352.745C375.325 340.519 374.339 329.845 373.161 319.115C372.322 310.257 371.55 301.449 362.514 292.314C353.571 282.95 345.012 282.315 336.374 281.501C325.812 280.513 315.045 279.623 303.049 267.319C291.046 255.008 290.412 244.091 289.648 233.332C289.124 224.884 288.657 216.512 280.003 207.857C271.195 199.357 262.289 198.565 253.526 197.744C242.25 196.634 231.076 195.762 218.704 184.314C206.152 172.797 205.317 163.215 204.517 154.298C204.103 147.706 203.708 141.458 194.187 134.298C196.599 133.106 198.901 131.912 201.486 130.798L201.508 130.781ZM224.314 121.491C236.636 129.19 236.914 135.646 237.455 142.975C237.887 149.165 238.226 155.469 247.277 162.87C256.279 170.433 265.032 171.263 273.717 172.024C284.327 172.964 294.876 173.939 306.206 184.351C317.678 195.095 318.324 204.89 319.087 215.038C319.843 223.504 320.46 231.837 329.036 240.816C337.788 249.875 346.174 250.433 354.591 251.35C365.036 252.339 375.806 253.209 388.174 265.902C400.763 278.491 401.776 289.386 403.146 300.402C404.024 309.109 404.908 317.916 414.169 327.078C423.475 336.077 432.216 336.894 440.987 337.841C451.94 338.913 462.567 339.97 474.563 351.771C486.119 363.423 487.136 373.706 487.926 383.858C488.612 392.255 489.478 400.836 497.697 409.458C505.902 418.066 513.669 418.524 521.14 418.918C529.875 419.517 538.426 420.049 547.456 431.653C556.332 443.523 557.66 454.827 558.744 465.789C559.984 475.354 561.384 484.891 567.933 494.411C566.853 496.822 565.798 499.258 564.421 501.604C554.964 488.845 553.367 477.176 551.904 465.623C550.915 456.308 549.959 447.429 543.134 438.55C536.037 429.802 529.113 429.363 521.907 428.95C512.676 428.352 503.06 427.909 491.784 415.999C480.206 404.232 479.394 393.633 478.347 383.129C477.622 374.883 477.105 366.56 468.221 357.884C459.288 349.258 450.699 348.38 442.024 347.629C430.957 346.539 420.121 345.58 407.625 333.392C395.056 321.035 394.051 310.243 392.874 299.397C391.912 290.417 390.97 281.664 381.748 272.329C372.587 263.072 364.131 262.215 355.558 261.565C345.083 260.357 334.562 259.487 322.779 247.201C311.014 235.034 310.13 224.368 309.621 214.19C308.856 206.116 308.303 197.948 299.811 189.876C291.391 181.977 282.823 181.328 274.299 180.519C263.463 179.447 252.329 178.308 240.137 167.655C227.755 157.326 227.143 149.098 226.879 141.638C226.474 135.783 226.065 130.427 216.801 124.46C219.282 123.449 221.783 122.44 224.32 121.486L224.314 121.491ZM246.361 113.706C258.151 119.951 258.472 125.415 258.954 131.554C259.372 136.901 259.768 142.535 268.336 148.955C276.92 155.581 285.339 156.384 293.793 157.126C303.825 158.009 314.03 158.853 325.07 168.336C336.248 178.266 337.066 187.528 337.961 196.958C338.658 204.849 339.423 212.922 348.022 221.522C356.696 230.408 365.152 231.035 373.504 231.884C384.066 232.872 394.845 233.887 407.472 246.301C420.271 258.793 421.465 269.868 422.871 280.731C423.824 289.608 424.775 298.464 433.997 307.8C443.381 316.971 452.015 317.895 460.663 318.832C471.231 320.038 481.515 321.054 492.927 333.1C503.929 344.83 504.935 354.99 505.818 365.023C506.603 373.211 507.214 381.438 515.055 389.799C522.734 398.188 529.661 398.63 536.425 399.121C544.364 399.77 552.025 400.335 559.948 411.442C567.611 422.809 568.608 433.475 569.545 444.195C570.506 453.292 571.765 462.469 577.049 471.671C576.193 473.998 575.296 476.498 574.227 478.92C566.252 466.513 564.854 455.139 563.515 443.826C562.801 435.094 562.096 426.464 556.215 418.11C549.923 409.553 543.677 409.178 537.304 408.774C528.915 408.213 520.124 407.649 509.553 396.254C498.694 384.763 497.736 374.443 496.892 364.35C495.996 356.05 495.393 347.926 487.017 339.244C478.41 330.542 470.201 329.528 461.566 328.717C450.778 327.598 439.987 326.477 427.532 314.116C414.886 301.584 413.768 290.683 412.523 279.769C411.514 270.837 410.55 261.854 401.12 252.615C391.844 243.452 383.158 242.576 374.577 241.823C364.009 240.617 353.505 239.687 341.768 227.738C330.156 215.913 329.262 205.87 328.568 196.122C327.83 188.384 327.23 181.009 318.952 173.441C310.685 166.114 302.517 165.445 294.279 164.711C283.717 163.723 273.179 162.737 261.356 153.18C249.431 144.131 249.073 137.098 248.776 130.528C248.455 125.585 248.048 120.953 239.284 116.201C241.611 115.344 243.947 114.473 246.343 113.686L246.361 113.706ZM267.589 107.577C278.714 112.429 278.919 116.741 279.37 121.832C279.683 126.175 280.071 131.072 288.289 136.621C296.484 142.437 304.711 143.161 312.763 143.809C322.703 144.695 332.688 145.625 343.69 154.15C354.842 163.249 355.576 171.486 356.462 180.296C357.104 187.517 357.859 194.966 366.543 203.23C375.335 211.502 383.914 212.37 392.503 213.247C403.225 214.3 414.228 215.231 427.073 227.041C440.026 239.266 441.041 250.158 442.331 261.139C443.4 270.038 444.421 278.959 453.638 288.389C462.531 297.802 471.176 298.714 479.488 299.736C489.435 300.955 499.23 302.098 509.99 314.295C520.216 326.172 521.172 336.49 522.172 346.544C522.901 354.676 523.661 362.749 530.885 370.986C537.751 379.101 544.075 379.649 550.055 380.18C557.107 380.746 563.546 381.314 570.489 392.175C576.928 403.045 577.881 413.147 578.85 423.478C579.486 432.037 580.392 440.849 584.773 449.467C583.983 451.861 583.229 454.197 582.487 456.543C575.896 444.715 574.784 433.915 573.896 423.146C573.163 414.796 572.485 406.503 567.301 398.442C561.994 390.372 556.636 389.943 550.935 389.384C543.397 388.947 535.555 388.313 525.957 377.165C515.891 365.873 514.836 355.878 513.898 345.768C513.114 337.58 512.436 329.286 504.509 320.532C496.447 311.646 488.47 310.652 480.388 309.784C470.039 308.583 459.577 307.388 447.217 294.821C434.561 282.052 433.414 271.041 432.112 260.069C431.103 251.137 430.099 242.305 420.634 233.242C411.221 224.349 402.26 223.614 393.679 222.749C382.834 221.686 372.339 220.652 360.456 209.078C348.774 197.798 347.891 188.377 347.031 179.29C346.361 172.229 345.764 165.459 337.604 158.637C329.457 152.047 321.396 151.276 313.437 150.625C303.337 149.675 293.129 148.828 281.939 140.519C270.431 132.502 270.017 126.544 269.743 120.92C269.382 116.855 269.159 113.141 260.886 109.395C263.078 108.806 265.308 108.159 267.606 107.576L267.589 107.577ZM287.93 103.437C298.541 106.948 298.875 110.163 299.117 114.103C299.365 117.536 299.66 121.535 307.631 126.222C315.636 131.233 323.575 131.882 331.495 132.688C341.424 133.676 351.351 134.548 362.383 142.072C373.71 150.02 374.36 157.35 375.212 165.086C375.924 171.763 376.687 178.592 385.425 186.311C394.342 194.097 403.037 194.869 411.988 195.476C422.988 196.5 434.2 197.332 447.048 208.417C459.868 219.912 460.767 230.675 461.938 241.416C462.872 250.178 463.881 259.11 472.687 268.722C481.532 278.182 489.404 279.261 497.313 280.074C506.935 281.256 515.8 282.198 525.584 294.764C534.881 306.825 535.867 317.385 536.779 327.772C537.619 336.016 538.279 344.083 544.829 352.38C551.143 360.552 556.613 360.979 561.762 361.484C567.742 362.014 573.145 362.487 578.895 373.072C584.254 383.669 585.127 393.595 586.013 403.535C586.633 411.754 587.311 420.048 590.77 428.245C590.086 430.533 589.553 432.786 588.965 434.979C583.778 423.826 582.927 413.515 582.08 403.306C581.421 395.244 580.762 387.177 576.429 379.352C571.934 371.46 567.486 371.119 562.742 370.712C556.2 370.135 549.205 369.512 540.452 358.494C531.353 347.342 530.334 337.173 529.386 327.072C528.644 318.619 527.785 310.144 520.66 301.174C513.154 292.229 505.857 291.3 498.384 290.407C488.486 289.256 478.366 288.076 466.536 275.229C454.132 262.21 453.011 251.307 451.834 240.46C450.785 231.701 449.954 222.946 440.478 214.507C431.087 205.843 421.815 205.418 413.062 204.587C402.061 203.564 391.217 202.501 379.14 191.749C367.399 181.14 366.406 172.549 365.729 164.143C365.065 157.934 364.477 151.878 356.171 145.837C348.026 139.859 339.958 139.199 332.173 138.397C322.188 137.466 312.267 136.699 301.387 129.518C290.545 122.688 290.052 117.646 289.777 113.264C289.497 110.108 289.316 107.353 281.446 104.531C283.484 104.208 285.688 103.725 287.955 103.424L287.93 103.437ZM307.694 101.483C317.982 103.965 318.237 106.061 318.411 108.709C318.586 111.358 318.858 114.411 326.575 118.217C334.429 122.271 342.455 123.083 350.394 123.732C360.399 124.777 370.444 125.786 381.753 132.149C393.388 139.044 393.937 145.255 394.658 152.036C395.285 157.919 395.994 164.077 404.993 170.811C414.082 178.04 423.188 178.513 432.211 179.187C443.432 180.124 455.112 180.489 467.582 190.598C479.972 201.031 480.705 211.125 481.403 221.592C482.117 230.324 482.958 239.201 491.19 248.759C499.558 257.95 506.883 259.102 514.057 259.904C522.925 260.753 531.063 261.678 539.459 274.411C547.779 286.837 548.519 297.78 549.469 308.381C550.165 316.906 551.07 325.309 556.8 333.707C562.329 341.806 566.96 342.216 571.129 342.586C576.102 343.127 580.284 343.511 584.98 354.271C589.156 364.72 589.953 374.476 590.863 384.114C591.455 392.11 592.267 400.136 594.753 407.976C594.288 410.274 594.032 412.379 593.654 414.589C589.786 403.832 588.981 393.86 588.097 383.94C587.353 376.095 586.541 368.187 583.229 360.443C579.564 352.558 576.018 352.31 572.056 351.84C566.709 351.422 560.829 350.797 553.143 339.927C544.916 328.517 543.966 318.299 542.922 307.681C542.169 299.1 541.55 290.272 535.2 281.141C528.459 271.926 522.004 271.129 514.994 270.297C505.897 269.336 496.457 268.222 485.193 255.421C473.517 242.419 472.463 231.678 471.514 220.965C470.806 212.451 470.141 204.166 460.773 196.335C451.569 188.475 442.253 188.1 433.069 187.567C422.021 186.591 410.799 185.767 398.491 175.725C386.328 166.035 385.59 158.296 384.901 151.122C384.313 145.7 383.695 140.554 375.317 135.053C366.996 130.129 358.865 129.4 350.898 128.534C340.949 127.545 331.029 126.661 320.358 120.629C309.733 114.935 309.514 111.11 309.273 107.894C309.069 105.637 308.911 103.828 301.307 101.981C303.356 101.765 305.536 101.683 307.698 101.466L307.694 101.483Z" fill="url(#paint1_linear_562_2245)" fill-opacity="0.6"/>
</mask>
<g mask="url(#mask0_562_2245)">
<rect x="-101.945" y="226.253" width="605" height="120" transform="rotate(-45 -101.945 226.253)" fill="url(#paint2_linear_562_2245)"/>
</g>
<defs>
<linearGradient id="paint0_linear_562_2245" x1="348.954" y1="348.954" x2="154.5" y2="507.316" gradientUnits="userSpaceOnUse">
<stop stop-color="white"/>
<stop offset="1" stop-color="white" stop-opacity="0"/>
</linearGradient>
<linearGradient id="paint1_linear_562_2245" x1="348.954" y1="348.954" x2="154.5" y2="507.316" gradientUnits="userSpaceOnUse">
<stop stop-color="white"/>
<stop offset="1" stop-color="white" stop-opacity="0"/>
</linearGradient>
<linearGradient id="paint2_linear_562_2245" x1="200.555" y1="226.253" x2="200.555" y2="346.253" gradientUnits="userSpaceOnUse">
<stop stop-color="white" stop-opacity="0"/>
<stop offset="0.390625" stop-color="white"/>
<stop offset="0.583333" stop-color="white"/>
<stop offset="1" stop-color="white" stop-opacity="0"/>
</linearGradient>
</defs>
</svg>
