<svg width="110" height="36" viewBox="0 0 110 36" fill="none" xmlns="http://www.w3.org/2000/svg">
<path fill-rule="evenodd" clip-rule="evenodd" d="M25.5171 0H18.8984V16.6468H33.557V12.5159H25.5171V0ZM6.61815 10.0719H10.4058V12.516H6.61815V10.0719ZM6.61815 4.13162H10.4058V6.64971H6.61815V4.13162ZM14.0985 0.000138047H0V16.6475H14.0985C15.718 16.6475 17.0245 15.5228 17.0245 14.1294V11.1966C17.0245 8.62855 14.0985 8.62856 14.0985 8.62856V7.96914C14.0985 7.96914 17.0245 7.99379 17.0245 5.45105V2.51823C17.0245 1.12484 15.718 0.000138047 14.0985 0.000138047ZM45.8425 4.13156H41.4386V12.516H45.8425V4.13156ZM34.8205 14.1293V2.51817C34.8205 1.12477 36.127 7.70122e-05 37.7459 7.70122e-05H49.5352C51.1548 7.70122e-05 52.4613 1.12477 52.4613 2.51817V14.1293C52.4613 15.5227 51.1548 16.6474 49.5352 16.6474H37.7459C36.127 16.6474 34.8205 15.5227 34.8205 14.1293ZM0 35.827H7.00764V28.8193H0V35.827ZM53.7228 14.1293V2.51815C53.7228 1.12476 55.0299 6.14252e-05 56.6488 6.14252e-05H68.4369C70.0558 6.14252e-05 71.363 1.12476 71.363 2.51815V6.18436H64.7454V4.13155H60.3415V12.5159H64.7454V9.94917H71.363V14.1293C71.363 15.5227 70.0558 16.6474 68.4369 16.6474H56.6488C55.0299 16.6474 53.7228 15.5227 53.7228 14.1293ZM79.2411 0.000171714H72.6211V16.6747H79.2411V14.1362L80.7467 12.2209L83.7362 16.6747H91.0939L85.1481 8.0376L90.7537 0.000171714H83.7362L81.5121 3.50245C80.5174 4.76211 79.9788 6.24856 79.9788 7.78616H79.2411V0.000171714ZM16.3006 35.8253H9.29297V28.8176H16.3006V35.8253ZM9.29297 26.2211H16.3006V19.2134H9.29297V26.2211ZM7.00764 26.2223H0V19.2147H7.00764V26.2223ZM25.5171 29.2863H29.3047V31.7305H25.5171V29.2863ZM25.5171 23.3455H29.3047V25.8636H25.5171V23.3455ZM32.9975 19.2146H18.8984V35.8614H32.9975C34.6164 35.8614 35.9229 34.7367 35.9229 33.3439V30.411C35.9229 27.843 32.9975 27.843 32.9975 27.843V27.183C32.9975 27.183 35.9229 27.2083 35.9229 24.6655V21.7327C35.9229 20.3393 34.6164 19.2146 32.9975 19.2146ZM64.7454 23.3454H60.3415V31.7297H64.7454V23.3454ZM53.7228 33.3438V21.7326C53.7228 20.3392 55.0293 19.2145 56.6482 19.2145H68.4375C70.0571 19.2145 71.3636 20.3392 71.3636 21.7326V33.3438C71.3636 34.7365 70.0571 35.8612 68.4375 35.8612H56.6482C55.0293 35.8612 53.7228 34.7365 53.7228 33.3438ZM44.4234 19.2146H37.8046V35.8614H52.4633V31.7305H44.4234V19.2146ZM91.5274 19.2142H98.1474V27.0002H98.8851C98.8851 25.4626 99.4237 23.9761 100.418 22.7165L102.642 19.2142H109.66L104.054 27.2516L110 35.8887H102.642L99.6529 31.4349L98.1474 33.3503V35.8887H91.5274V19.2142ZM72.6211 21.7325V33.3437C72.6211 34.7371 73.9282 35.8618 75.5472 35.8618H87.3353C88.9542 35.8618 90.2613 34.7371 90.2613 33.3437V29.1635H83.6438V31.7303H79.2399V23.3459H83.6438V25.3987H90.2613V21.7325C90.2613 20.3391 88.9542 19.2144 87.3353 19.2144H75.5472C73.9282 19.2144 72.6211 20.3391 72.6211 21.7325Z" fill="white"/>
</svg>
